HIERARCHY
ROOT Hips
{
	OFFSET 0.000000 0.000000 0.000000
	CHANNELS 6 Xposition Yposition Zposition Zrotation Yrotation Xrotation 
	JOINT LHipJoint
	{
		OFFSET 0.000000 0.000000 0.000000
		CHANNELS 3 Zrotation Yrotation Xrotation
		JOINT LeftUpLeg
		{
			OFFSET 1.363060 -1.794630 0.839290
			CHANNELS 3 Zrotation Yrotation Xrotation
			JOINT LeftLeg
			{
				OFFSET 2.448110 -6.726130 0.000000
				CHANNELS 3 Zrotation Yrotation Xrotation
				JOINT LeftFoot
				{
					OFFSET 2.562200 -7.039590 0.000000
					CHANNELS 3 Zrotation Yrotation Xrotation
					JOINT LeftToeBase
					{
						OFFSET 0.157640 -0.433110 2.322550
						CHANNELS 3 Zrotation Yrotation Xrotation
						End Site
						{
							OFFSET 0.000000 0.000000 0.000000
						}
					}
				}
			}
		}
	}
	JOINT RHipJoint
	{
		OFFSET 0.000000 0.000000 0.000000
		CHANNELS 3 Zrotation Yrotation Xrotation
		JOINT RightUpLeg
		{
			OFFSET -1.305520 -1.794630 0.839290
			CHANNELS 3 Zrotation Yrotation Xrotation
			JOINT RightLeg
			{
				OFFSET -2.542530 -6.985550 0.000000
				CHANNELS 3 Zrotation Yrotation Xrotation
				JOINT RightFoot
				{
					OFFSET -2.568260 -7.056230 0.000000
					CHANNELS 3 Zrotation Yrotation Xrotation
					JOINT RightToeBase
					{
						OFFSET -0.164730 -0.452590 2.363150
						CHANNELS 3 Zrotation Yrotation Xrotation
						End Site
						{
							OFFSET 0.000000 0.000000 0.000000
						}
					}
				}
			}
		}
	}
	JOINT LowerBack
	{
		OFFSET 0.000000 0.000000 0.000000
		CHANNELS 3 Zrotation Yrotation Xrotation
		JOINT Spine
		{
			OFFSET 0.028270 2.035590 -0.193380
			CHANNELS 3 Zrotation Yrotation Xrotation
			JOINT Spine1
			{
				OFFSET 0.056720 2.048850 -0.042750
				CHANNELS 3 Zrotation Yrotation Xrotation
				JOINT Neck
				{
					OFFSET 0.000000 0.000000 0.000000
					CHANNELS 3 Zrotation Yrotation Xrotation
					JOINT Neck1
					{
						OFFSET -0.054170 1.746240 0.172020
						CHANNELS 3 Zrotation Yrotation Xrotation
						JOINT Head
						{
							OFFSET 0.104070 1.761360 -0.123970
							CHANNELS 3 Zrotation Yrotation Xrotation
							End Site
							{
								OFFSET 0.000000 0.000000 0.000000
							}
						}
					}
				}
				JOINT LeftShoulder
				{
					OFFSET 0.000000 0.000000 0.000000
					CHANNELS 3 Zrotation Yrotation Xrotation
					JOINT LeftArm
					{
						OFFSET 3.362410 1.200890 -0.311210
						CHANNELS 3 Zrotation Yrotation Xrotation
						JOINT LeftForeArm
						{
							OFFSET 4.983000 -0.000000 -0.000000
							CHANNELS 3 Zrotation Yrotation Xrotation
							JOINT LeftHand
							{
								OFFSET 3.483560 -0.000000 -0.000000
								CHANNELS 3 Zrotation Yrotation Xrotation
								JOINT LeftFingerBase
								{
									OFFSET 0.000000 0.000000 0.000000
									CHANNELS 3 Zrotation Yrotation Xrotation
									JOINT LeftHandIndex1
									{
										OFFSET 0.715260 -0.000000 -0.000000
										CHANNELS 3 Zrotation Yrotation Xrotation
										End Site
										{
											OFFSET 0.000000 0.000000 0.000000
										}
									}
								}
								JOINT LThumb
								{
									OFFSET 0.000000 0.000000 0.000000
									CHANNELS 3 Zrotation Yrotation Xrotation
									End Site
									{
										OFFSET 0.000000 0.000000 0.000000
									}
								}
							}
						}
					}
				}
				JOINT RightShoulder
				{
					OFFSET 0.000000 0.000000 0.000000
					CHANNELS 3 Zrotation Yrotation Xrotation
					JOINT RightArm
					{
						OFFSET -3.136600 1.374050 -0.404650
						CHANNELS 3 Zrotation Yrotation Xrotation
						JOINT RightForeArm
						{
							OFFSET -5.241900 -0.000000 -0.000000
							CHANNELS 3 Zrotation Yrotation Xrotation
							JOINT RightHand
							{
								OFFSET -3.444170 -0.000000 -0.000000
								CHANNELS 3 Zrotation Yrotation Xrotation
								JOINT RightFingerBase
								{
									OFFSET 0.000000 0.000000 0.000000
									CHANNELS 3 Zrotation Yrotation Xrotation
									JOINT RightHandIndex1
									{
										OFFSET -0.622530 -0.000000 -0.000000
										CHANNELS 3 Zrotation Yrotation Xrotation
										End Site
										{
											OFFSET 0.000000 0.000000 0.000000
										}
									}
								}
								JOINT RThumb
								{
									OFFSET 0.000000 0.000000 0.000000
									CHANNELS 3 Zrotation Yrotation Xrotation
									End Site
									{
										OFFSET 0.000000 0.000000 0.000000
									}
								}
							}
						}
					}
				}
			}
		}
	}
}
MOTION
Frames: 10
Frame Time: 0.008333
0.043897 17.833863 -29.590253 -0.897634 3.845372 3.829103 -5.965557 -1.733534 1.204731 -11.063386 -2.962586 -8.204489 0.295541 8.744679 22.480408 -4.128609 16.761059 -3.206888 0.088200 -1.915100 -5.271000 4.361758 1.773411 0.054022 14.668224 0.981455 -10.251117 -1.739565 -10.419375 27.797350 5.353229 -22.112665 -10.992598 -0.016600 0.831800 -2.286200 -0.116482 -0.078008 0.107297 1.777764 -0.241247 -2.844619 1.516011 -0.143713 -1.745958 1.923395 -2.875014 -17.708178 2.823207 -4.433352 14.124903 -2.578500 -1.586900 9.592700 3.562517 -1.021362 0.136443 -87.271227 6.795700 24.696122 17.830807 -27.420541 -4.003108 0.263526 0.374203 -7.089252 14.217535 -0.812239 -0.288100 -7.125000 0.000000 0.000000 -9.825400 28.722600 3.947700 -3.066543 1.744891 0.204645 86.703119 -5.543295 7.108373 -13.297786 22.144537 -2.625802 -0.027595 -0.512062 -4.730579 -18.944570 -0.155598 -0.130600 7.125000 0.000000 0.000000 6.029400 -29.550700 2.282800 
0.043598 17.832668 -29.589257 -0.891465 3.862976 3.824884 -5.962729 -1.734714 1.204163 -11.069347 -2.935242 -8.204802 0.295095 8.743187 22.476873 -4.121690 16.738926 -3.196617 0.092300 -1.959100 -5.392800 4.363107 1.773370 0.054740 14.661969 0.934770 -10.249864 -1.737177 -10.414282 27.776260 5.360748 -22.133830 -10.944340 -0.017400 0.850600 -2.337900 -0.088666 0.042249 0.117455 1.650677 -0.082960 -2.841485 1.333359 -0.063144 -1.761497 2.302038 -2.910354 -17.681718 2.684955 -4.590332 14.037057 -2.711700 -1.648600 9.537400 3.564394 -1.035243 0.138236 -87.014165 6.763730 25.009384 17.829636 -27.414726 -4.004463 0.273160 0.369613 -7.336408 14.506464 -1.128102 -0.372400 -7.125000 0.000000 0.000000 -9.583200 28.409000 3.920100 -3.072179 1.736120 0.203624 87.022871 -5.660669 6.694878 -13.272933 22.118635 -2.618887 -0.027162 -0.513073 -4.640466 -18.876720 -0.264450 -0.093300 7.125000 0.000000 0.000000 6.088300 -29.663700 2.288900 
0.043797 17.831673 -29.587665 -0.874129 3.922339 3.820085 -5.960115 -1.735697 1.201163 -11.087460 -2.946903 -8.202614 0.297024 8.749395 22.497853 -4.101556 16.673037 -3.188897 0.092300 -1.959200 -5.392900 4.364397 1.774124 0.056550 14.643833 0.875484 -10.247692 -1.735473 -10.409489 27.758508 5.371743 -22.168912 -10.930574 -0.017900 0.862600 -2.370900 -0.065462 0.152277 0.130709 1.523076 0.062843 -2.838930 1.155244 0.009543 -1.777424 2.517884 -2.972327 -17.621041 2.678403 -4.740785 14.005085 -2.767200 -1.701300 9.502400 3.564844 -1.038079 0.137935 -86.759518 6.704655 25.403850 17.811954 -27.383486 -3.997103 0.284136 0.351424 -7.760972 14.655475 -1.980336 -0.588300 -7.125000 0.000000 0.000000 -9.407600 27.563000 4.037200 -3.080294 1.737240 0.203862 87.341774 -5.759693 6.244841 -13.228274 22.066192 -2.604219 -0.028685 -0.511690 -4.423503 -18.746323 -0.216832 -0.108200 7.125000 0.000000 0.000000 6.187100 -29.614800 2.333700 
0.043399 17.832370 -29.589755 -0.935193 3.944877 3.821070 -5.958977 -1.735722 1.201509 -11.016842 -2.952993 -8.221666 0.300828 8.754169 22.516193 -4.100303 16.662252 -3.197619 0.091700 -1.953500 -5.377100 4.364108 1.772525 0.057025 14.716452 0.904969 -10.238214 -1.730364 -10.403434 27.739312 5.370792 -22.172203 -10.963316 -0.016900 0.840400 -2.309800 -0.059144 0.081749 0.138808 1.618782 -0.030947 -2.885280 1.268587 -0.033909 -1.823608 2.666944 -2.702489 -17.654699 2.359490 -4.382263 14.117596 -2.869400 -1.555500 9.558900 3.569098 -1.056477 0.142308 -87.024790 6.899522 24.976038 17.872012 -27.467856 -4.023827 0.280211 0.361488 -7.710780 14.658539 -1.598060 -0.493700 -7.125000 0.000000 0.000000 -9.433400 27.941500 3.963100 -3.069401 1.727102 0.202213 87.137508 -5.839150 6.457930 -13.136885 21.931591 -2.571192 -0.031374 -0.508782 -4.390079 -18.740604 -0.070033 -0.156600 7.125000 0.000000 0.000000 6.184300 -29.464100 2.354900 
0.043300 17.832270 -29.590352 -0.970993 3.969551 3.824704 -5.953499 -1.734401 1.198940 -10.979607 -2.953590 -8.239931 0.304726 8.762203 22.541620 -4.091838 16.630753 -3.207152 0.091900 -1.954700 -5.380500 4.367152 1.775836 0.055309 14.755307 0.894377 -10.237973 -1.727015 -10.397596 27.720770 5.374460 -22.185838 -10.964502 -0.016800 0.837900 -2.302900 0.059027 0.243521 0.181191 1.449201 0.187436 -2.866225 0.984106 0.070820 -1.838261 2.858953 -2.891014 -17.785857 2.452068 -4.702448 14.157493 -2.907900 -1.671100 9.580700 3.566627 -1.043518 0.138794 -86.634957 6.775312 25.467691 17.865288 -27.449080 -4.019439 0.281266 0.362503 -7.938690 14.698094 -1.634072 -0.504100 -7.125000 0.000000 0.000000 -9.402100 27.905000 3.957800 -3.084761 1.740882 0.203408 87.571838 -5.884137 5.843644 -13.084613 21.874368 -2.556182 -0.035417 -0.507082 -4.240473 -18.708206 0.107010 -0.215400 7.125000 0.000000 0.000000 6.200900 -29.280300 2.388500 
0.043399 17.832270 -29.591248 -1.009634 3.988964 3.830190 -5.948697 -1.733106 1.196444 -10.939728 -2.956302 -8.262214 0.309240 8.771840 22.571999 -4.084302 16.601678 -3.223170 0.091500 -1.950900 -5.370000 4.369677 1.779163 0.053699 14.796168 0.885516 -10.240772 -1.723498 -10.391125 27.700818 5.377104 -22.195761 -10.960861 -0.016700 0.835400 -2.295900 0.161430 0.363226 0.239440 1.325281 0.350461 -2.845464 0.768153 0.147923 -1.853465 2.929196 -3.054174 -17.944955 2.577415 -4.953837 14.200945 -2.906400 -1.761500 9.615900 3.564062 -1.028067 0.134936 -86.354327 6.650533 25.813250 17.849940 -27.422088 -4.011366 0.280768 0.364071 -8.124116 14.688354 -1.619725 -0.500200 -7.125000 0.000000 0.000000 -9.411300 27.919100 3.958600 -3.097794 1.755860 0.204844 87.889185 -5.896329 5.394163 -13.032560 21.814289 -2.540600 -0.039442 -0.504859 -4.124794 -18.681260 0.312896 -0.283500 7.125000 0.000000 0.000000 6.211800 -29.066900 2.424500 
0.043698 17.832270 -29.592244 -1.046767 4.002350 3.837693 -5.944280 -1.731650 1.194267 -10.901767 -2.956156 -8.285458 0.313132 8.779921 22.597420 -4.078282 16.577873 -3.236577 0.091300 -1.949000 -5.364600 4.372077 1.782799 0.051896 14.834019 0.875244 -10.247722 -1.720219 -10.384954 27.682398 5.378207 -22.199762 -10.952108 -0.016700 0.833800 -2.291700 0.258458 0.472525 0.309777 1.211607 0.500259 -2.823172 0.569635 0.218229 -1.871879 2.931591 -3.234070 -18.118665 2.743803 -5.211300 14.239469 -2.879400 -1.855700 9.654600 3.560997 -1.009707 0.130463 -86.096303 6.514329 26.124456 17.822676 -27.380510 -3.998038 0.278285 0.367996 -8.248685 14.636851 -1.482981 -0.464400 -7.125000 0.000000 0.000000 -9.461000 28.055000 3.949200 -3.110883 1.772855 0.206701 88.175067 -5.895578 5.006203 -12.992142 21.769522 -2.528784 -0.042780 -0.502934 -4.039381 -18.651523 0.493460 -0.342900 7.125000 0.000000 0.000000 6.226300 -28.879700 2.458100 
0.044096 17.832171 -29.593139 -1.071057 4.013189 3.844959 -5.941657 -1.730871 1.192468 -10.877081 -2.959251 -8.305230 0.316254 8.786863 22.619130 -4.073498 16.559060 -3.249943 0.091100 -1.946700 -5.358400 4.373537 1.785426 0.051096 14.857583 0.859328 -10.257853 -1.717736 -10.379613 27.666505 5.378951 -22.201122 -10.936082 -0.016700 0.835200 -2.295400 0.312300 0.530406 0.382265 1.151455 0.580806 -2.817822 0.464351 0.255912 -1.907870 2.862845 -3.343076 -18.226455 2.878023 -5.348461 14.260001 -2.836900 -1.906300 9.681300 3.559034 -0.997179 0.127289 -85.974630 6.442663 26.262423 17.789747 -27.334273 -3.982567 0.275149 0.371527 -8.320210 14.557058 -1.338390 -0.425900 -7.125000 0.000000 0.000000 -9.532400 28.198800 3.946900 -3.118474 1.785895 0.208611 88.317449 -5.923088 4.835428 -12.964966 21.737584 -2.519802 -0.044906 -0.501036 -3.990402 -18.595001 0.648545 -0.393000 7.125000 0.000000 0.000000 6.262500 -28.719500 2.496500 
0.044494 17.832071 -29.594035 -1.086842 4.024527 3.851604 -5.941259 -1.730945 1.191285 -10.859107 -2.964528 -8.321802 0.318580 8.791673 22.634838 -4.070051 16.545431 -3.258949 0.091200 -1.947800 -5.361400 4.373461 1.786603 0.051157 14.873177 0.842527 -10.269827 -1.715808 -10.375435 27.654418 5.378925 -22.199709 -10.920901 -0.016700 0.835000 -2.295000 0.307350 0.504065 0.440144 1.183416 0.548004 -2.810905 0.510903 0.239070 -1.928076 2.709899 -3.324946 -18.332178 2.925940 -5.278790 14.282923 -2.787800 -1.880600 9.718500 3.559244 -0.992165 0.125963 -86.084434 6.422097 26.092845 17.754223 -27.291222 -3.967032 0.270684 0.375765 -8.288373 14.443362 -1.125233 -0.370100 -7.125000 0.000000 0.000000 -9.634900 28.410700 3.941400 -3.117800 1.791380 0.209632 88.223426 -5.921952 4.985836 -12.940823 21.701711 -2.510014 -0.045529 -0.499146 -3.988018 -18.523987 0.749251 -0.424200 7.125000 0.000000 0.000000 6.312300 -28.616400 2.532000 
0.044793 17.831971 -29.594931 -1.091463 4.036868 3.857110 -5.942893 -1.732307 1.190574 -10.851404 -2.973395 -8.333977 0.320159 8.794584 22.645422 -4.068174 16.537282 -3.263180 0.091000 -1.945800 -5.355900 4.372242 1.785727 0.052706 14.877403 0.824511 -10.282935 -1.714450 -10.372566 27.645569 5.378020 -22.195240 -10.907948 -0.016700 0.835300 -2.295900 0.252489 0.419875 0.479303 1.278476 0.435914 -2.837184 0.665196 0.186347 -1.973860 2.575714 -3.166175 -18.302248 2.842661 -5.014216 14.266672 -2.764300 -1.783600 9.720800 3.562508 -1.003084 0.127936 -86.356211 6.525512 25.716029 17.724739 -27.259274 -3.954379 0.265091 0.380955 -8.190114 14.303786 -0.855581 -0.300800 -7.125000 0.000000 0.000000 -9.761800 28.678100 3.931900 -3.108136 1.785539 0.209900 87.966442 -5.991538 5.386926 -12.932598 21.680464 -2.503754 -0.044403 -0.497904 -4.041459 -18.432553 0.781526 -0.432100 7.125000 0.000000 0.000000 6.380800 -28.584400 2.564700 
